<?xml version="1.0" encoding="UTF-8"?>
<svg id="Capa_1" data-name="Capa 1" xmlns="http://www.w3.org/2000/svg" viewBox="0 0 980 123">
  <defs>
    <style>
      .cls-1 {
        fill: #28282d;
      }
    </style>
  </defs>
  <path class="cls-1" d="M20.66,81.44c-5.77-5.85-8.66-13.14-8.66-21.88s2.89-15.99,8.66-21.77c5.85-5.85,13.14-8.77,21.88-8.77s16.03,2.93,21.88,8.77c5.85,5.78,8.77,13.03,8.77,21.77s-2.92,16.03-8.77,21.88c-5.92,5.78-13.22,8.66-21.88,8.66s-15.96-2.89-21.88-8.66ZM42.55,42.9c-4.59,0-8.44,1.59-11.55,4.78-3.11,3.18-4.66,7.15-4.66,11.89s1.56,8.7,4.66,11.88c3.11,3.18,6.96,4.78,11.55,4.78s8.44-1.59,11.55-4.78c3.11-3.18,4.66-7.15,4.66-11.88s-1.55-8.7-4.66-11.89c-3.11-3.18-6.96-4.78-11.55-4.78Z"/>
  <path class="cls-1" d="M105.97,29.01c6.52,0,12.37,2.07,17.55,6.22v-4.55h13.77v56.2c0,7.92-2.78,14.62-8.33,20.1-5.48,5.4-12.26,8.11-20.33,8.11-6.29,0-12.07-1.67-17.33-5-5.26-3.26-8.89-7.37-10.88-12.33l13.88-4c1.03,2.22,2.85,4.03,5.44,5.44,2.59,1.41,5.4,2.11,8.44,2.11,4.22,0,7.85-1.41,10.89-4.22,2.96-2.74,4.44-6.15,4.44-10.22v-3c-5.18,4.15-11.03,6.22-17.55,6.22-7.92,0-14.62-2.89-20.1-8.66-5.33-5.85-8-13.14-8-21.88s2.67-15.99,8-21.77c5.4-5.85,12.11-8.77,20.1-8.77ZM118.74,47.67c-2.96-3.18-6.63-4.78-11-4.78s-8.15,1.59-11.11,4.78c-2.96,3.18-4.44,7.15-4.44,11.89s1.48,8.7,4.44,11.88c2.96,3.18,6.66,4.78,11.11,4.78s8.03-1.59,11-4.78c3.04-3.26,4.55-7.22,4.55-11.88s-1.52-8.63-4.55-11.89Z"/>
  <path class="cls-1" d="M172.28,29.01c6.52,0,12.37,2.07,17.55,6.22v-4.55h13.77v57.76h-13.77v-4.55c-5.18,4.15-11.03,6.22-17.55,6.22-7.92,0-14.62-2.89-20.1-8.66-5.33-5.85-8-13.14-8-21.88s2.67-15.99,8-21.77c5.4-5.85,12.11-8.77,20.1-8.77ZM185.05,47.67c-2.96-3.18-6.63-4.78-11-4.78s-8.15,1.59-11.11,4.78c-2.96,3.18-4.44,7.15-4.44,11.89s1.48,8.7,4.44,11.88c2.96,3.18,6.66,4.78,11.11,4.78s8.03-1.59,11-4.78c3.04-3.26,4.55-7.22,4.55-11.88s-1.52-8.63-4.55-11.89Z"/>
  <path class="cls-1" d="M226.48,30.68v7.11c4-5.85,10.33-8.77,18.99-8.77v15.44c-1.85-.81-3.74-1.22-5.66-1.22-3.85,0-7.03,1.28-9.55,3.83-2.52,2.55-3.78,5.76-3.78,9.61v31.77h-13.88V30.68h13.88Z"/>
  <path class="cls-1" d="M264.13,30.68v7.11c4-5.85,10.33-8.77,18.99-8.77v15.44c-1.85-.81-3.74-1.22-5.66-1.22-3.85,0-7.03,1.28-9.55,3.83-2.52,2.55-3.78,5.76-3.78,9.61v31.77h-13.88V30.68h13.88Z"/>
  <path class="cls-1" d="M294.79,25.57c-2.52,0-4.61-.85-6.28-2.55-1.66-1.7-2.5-3.81-2.5-6.33s.83-4.61,2.5-6.28c1.67-1.67,3.76-2.5,6.28-2.5s4.63.83,6.33,2.5c1.7,1.67,2.55,3.76,2.55,6.28s-.83,4.63-2.5,6.33c-1.67,1.7-3.8,2.55-6.39,2.55ZM301.79,88.44h-13.88V30.68h13.88v57.76Z"/>
  <path class="cls-1" d="M317.34,81.44c-5.78-5.85-8.66-13.14-8.66-21.88s2.89-15.99,8.66-21.77c5.85-5.85,13.14-8.77,21.88-8.77s16.03,2.93,21.88,8.77c5.85,5.78,8.77,13.03,8.77,21.77s-2.93,16.03-8.77,21.88c-5.92,5.78-13.22,8.66-21.88,8.66s-15.96-2.89-21.88-8.66ZM339.22,42.9c-4.59,0-8.44,1.59-11.55,4.78-3.11,3.18-4.66,7.15-4.66,11.89s1.55,8.7,4.66,11.88c3.11,3.18,6.96,4.78,11.55,4.78s8.44-1.59,11.55-4.78c3.11-3.18,4.66-7.15,4.66-11.88s-1.56-8.7-4.66-11.89c-3.11-3.18-6.96-4.78-11.55-4.78Z"/>
  <path class="cls-1" d="M428.52,29.01c6.52,0,12.37,2.07,17.55,6.22v-4.55h13.77v57.76h-13.77v-4.55c-5.18,4.15-11.03,6.22-17.55,6.22-7.92,0-14.62-2.89-20.1-8.66-5.33-5.85-8-13.14-8-21.88s2.67-15.99,8-21.77c5.4-5.85,12.11-8.77,20.1-8.77ZM441.29,47.67c-2.96-3.18-6.63-4.78-11-4.78s-8.15,1.59-11.11,4.78c-2.96,3.18-4.44,7.15-4.44,11.89s1.48,8.7,4.44,11.88c2.96,3.18,6.66,4.78,11.11,4.78s8.03-1.59,11-4.78c3.04-3.26,4.55-7.22,4.55-11.88s-1.52-8.63-4.55-11.89Z"/>
  <path class="cls-1" d="M482.72,30.68v7.11c4-5.85,10.33-8.77,18.99-8.77v15.44c-1.85-.81-3.74-1.22-5.66-1.22-3.85,0-7.03,1.28-9.55,3.83-2.52,2.55-3.78,5.76-3.78,9.61v31.77h-13.88V30.68h13.88Z"/>
  <path class="cls-1" d="M530.37,29.01c6.52,0,12.37,2.07,17.55,6.22v-4.55h13.77v82.75h-13.77v-29.55c-5.18,4.15-11.03,6.22-17.55,6.22-7.92,0-14.63-2.89-20.11-8.66-5.33-5.85-8-13.14-8-21.88s2.67-15.99,8-21.77c5.41-5.85,12.11-8.77,20.11-8.77ZM543.15,47.67c-2.96-3.18-6.63-4.78-11-4.78s-8.15,1.59-11.11,4.78c-2.96,3.18-4.44,7.15-4.44,11.89s1.48,8.7,4.44,11.88c2.96,3.18,6.66,4.78,11.11,4.78s8.03-1.59,11-4.78c3.04-3.26,4.55-7.22,4.55-11.88s-1.52-8.63-4.55-11.89Z"/>
  <path class="cls-1" d="M570.69,67.55V30.68h13.88v32.88c0,3.78,1.24,6.94,3.72,9.5,2.48,2.55,5.61,3.83,9.39,3.83s6.81-1.28,9.33-3.83c2.52-2.55,3.78-5.72,3.78-9.5V30.68h13.88v57.76h-13.88v-7c-4.22,5.78-10,8.66-17.33,8.66-6.59,0-12.03-2.15-16.33-6.44-4.3-4.29-6.44-9.66-6.44-16.11Z"/>
  <path class="cls-1" d="M640.56,25.57c-2.52,0-4.61-.85-6.28-2.55-1.66-1.7-2.5-3.81-2.5-6.33s.83-4.61,2.5-6.28c1.67-1.67,3.76-2.5,6.28-2.5s4.63.83,6.33,2.5c1.7,1.67,2.55,3.76,2.55,6.28s-.83,4.63-2.5,6.33c-1.67,1.7-3.8,2.55-6.39,2.55ZM647.56,88.44h-13.88V30.68h13.88v57.76Z"/>
  <path class="cls-1" d="M651.78,42.78v-12.11h8.22v-11.33h13.88v11.33h14.33v12.11h-14.33v25.44c0,2,.67,3.67,2,5,1.33,1.33,3.04,2,5.11,2h7.22v13.22h-8.55c-5.48,0-10.15-1.74-13.99-5.22-3.78-3.48-5.66-7.81-5.66-13v-27.44h-8.22Z"/>
  <path class="cls-1" d="M752.07,64.67h-45.87c1.04,3.78,3.09,6.83,6.16,9.16,3.07,2.33,6.65,3.5,10.72,3.5,5.7,0,10.22-2.04,13.55-6.11l13.44,3.89c-2.67,4.66-6.39,8.33-11.16,11-4.78,2.67-10.05,4-15.83,4-8.89,0-16.33-2.89-22.33-8.66-5.92-5.92-8.89-13.22-8.89-21.88s2.89-15.99,8.66-21.77c5.85-5.85,13.07-8.77,21.66-8.77s15.77,2.93,21.55,8.77c5.85,5.85,8.77,13.11,8.77,21.77,0,1.41-.15,3.11-.44,5.11ZM706.31,53.89h31.88c-1.11-3.63-3.15-6.55-6.11-8.77-2.96-2.22-6.33-3.33-10.11-3.33s-6.89,1.11-9.77,3.33c-2.89,2.22-4.85,5.15-5.89,8.77Z"/>
  <path class="cls-1" d="M815.27,48.12l-13.88,4.11c-1.26-2.89-3.2-5.16-5.83-6.83-2.63-1.67-5.57-2.5-8.83-2.5-4.59,0-8.44,1.59-11.55,4.78-3.11,3.18-4.66,7.15-4.66,11.89s1.56,8.7,4.66,11.88c3.11,3.18,6.96,4.78,11.55,4.78,3.26,0,6.2-.83,8.83-2.5,2.63-1.67,4.57-3.94,5.83-6.83l13.88,4.11c-2.22,5.85-5.89,10.5-11,13.94-5.11,3.44-10.96,5.17-17.55,5.17-8.66,0-15.96-2.89-21.88-8.66-5.77-5.85-8.66-13.14-8.66-21.88s2.89-15.99,8.66-21.77c5.85-5.85,13.14-8.77,21.88-8.77,6.59,0,12.44,1.72,17.55,5.17,5.11,3.44,8.77,8.09,11,13.94Z"/>
  <path class="cls-1" d="M816.27,42.78v-12.11h8.22v-11.33h13.88v11.33h14.33v12.11h-14.33v25.44c0,2,.67,3.67,2,5,1.33,1.33,3.04,2,5.11,2h7.22v13.22h-8.55c-5.48,0-10.15-1.74-13.99-5.22-3.78-3.48-5.66-7.81-5.66-13v-27.44h-8.22Z"/>
  <path class="cls-1" d="M865.03,81.44c-5.77-5.85-8.66-13.14-8.66-21.88s2.89-15.99,8.66-21.77c5.85-5.85,13.14-8.77,21.88-8.77s16.03,2.93,21.88,8.77c5.85,5.78,8.77,13.03,8.77,21.77s-2.92,16.03-8.77,21.88c-5.92,5.78-13.22,8.66-21.88,8.66s-15.96-2.89-21.88-8.66ZM886.92,42.9c-4.59,0-8.44,1.59-11.55,4.78-3.11,3.18-4.66,7.15-4.66,11.89s1.56,8.7,4.66,11.88c3.11,3.18,6.96,4.78,11.55,4.78s8.44-1.59,11.55-4.78c3.11-3.18,4.66-7.15,4.66-11.88s-1.55-8.7-4.66-11.89c-3.11-3.18-6.96-4.78-11.55-4.78Z"/>
  <path class="cls-1" d="M967.11,44.56l-13,2.11c-1.26-3.78-4.63-5.66-10.11-5.66-2.37,0-4.31.44-5.83,1.33-1.52.89-2.28,2.11-2.28,3.67,0,1.93,1.7,3.48,5.11,4.66l11.89,4c5.26,1.85,9.09,4.15,11.5,6.89,2.41,2.74,3.61,6.22,3.61,10.44,0,5.85-2.09,10.33-6.28,13.44-4.18,3.11-9.72,4.67-16.61,4.67s-12.4-1.5-16.55-4.5c-4.15-3-6.63-7.16-7.44-12.5l13-1.89c.52,2.07,1.76,3.74,3.72,5,1.96,1.26,4.5,1.89,7.61,1.89,2.74,0,4.98-.5,6.72-1.5,1.74-1,2.61-2.39,2.61-4.17,0-2.29-2.15-4.15-6.44-5.55l-11.89-3.78c-4.89-1.63-8.4-3.7-10.55-6.22-2.15-2.52-3.22-5.81-3.22-9.89,0-5.85,2.02-10.31,6.05-13.38,4.03-3.07,9.46-4.61,16.27-4.61,6.22,0,11.28,1.37,15.16,4.11,3.89,2.74,6.2,6.55,6.94,11.44Z"/>
</svg>