<svg xmlns="http://www.w3.org/2000/svg" xmlns:xlink="http://www.w3.org/1999/xlink" width="280.455" height="31.444" viewBox="0 0 280.455 31.444">
  <defs>
    <clipPath id="clip-path">
      <rect id="Rectangle_8858" data-name="Rectangle 8858" width="280.455" height="31.444" fill="#fff"/>
    </clipPath>
  </defs>
  <g id="Group_20319" data-name="Group 20319" transform="translate(1553 22)">
    <g id="Group_20318" data-name="Group 20318" transform="translate(-1553 -22)" clip-path="url(#clip-path)">
      <path id="Path_2324" data-name="Path 2324" d="M2.541,45.416A8.771,8.771,0,0,1,0,39a8.743,8.743,0,0,1,8.961-8.961A8.714,8.714,0,0,1,15.38,32.61,8.6,8.6,0,0,1,17.954,39a8.712,8.712,0,0,1-2.574,6.419,8.841,8.841,0,0,1-6.419,2.542,8.841,8.841,0,0,1-6.419-2.542M8.961,34.109a4.549,4.549,0,0,0-3.389,1.4,5.126,5.126,0,0,0,0,6.973,4.547,4.547,0,0,0,3.389,1.4,4.547,4.547,0,0,0,3.389-1.4,5.126,5.126,0,0,0,0-6.973,4.55,4.55,0,0,0-3.389-1.4" transform="translate(0 -23.845)" fill="#fff"/>
      <path id="Path_2325" data-name="Path 2325" d="M101.99,30.036a8.028,8.028,0,0,1,5.149,1.825V30.525h4.041V47.013a7.968,7.968,0,0,1-2.444,5.9,8.159,8.159,0,0,1-5.963,2.379,9.3,9.3,0,0,1-5.083-1.466A7.6,7.6,0,0,1,94.5,50.206l4.073-1.173a3.537,3.537,0,0,0,1.6,1.6,5.108,5.108,0,0,0,2.476.619,4.537,4.537,0,0,0,3.194-1.238,3.919,3.919,0,0,0,1.3-3v-.88a8.026,8.026,0,0,1-5.149,1.825,7.817,7.817,0,0,1-5.9-2.542A9.169,9.169,0,0,1,93.746,39a9.053,9.053,0,0,1,2.346-6.387,7.707,7.707,0,0,1,5.9-2.574m3.748,5.474a4.452,4.452,0,0,0-6.485,0,5.316,5.316,0,0,0,0,6.973,4.452,4.452,0,0,0,6.485,0,5.219,5.219,0,0,0,0-6.973" transform="translate(-74.423 -23.845)" fill="#fff"/>
      <path id="Path_2326" data-name="Path 2326" d="M196.369,30.036a8.028,8.028,0,0,1,5.149,1.825V30.525h4.041V47.469h-4.041V46.133a8.026,8.026,0,0,1-5.149,1.825,7.817,7.817,0,0,1-5.9-2.542A9.169,9.169,0,0,1,188.125,39a9.053,9.053,0,0,1,2.346-6.387,7.707,7.707,0,0,1,5.9-2.574m3.748,5.474a4.452,4.452,0,0,0-6.485,0,5.316,5.316,0,0,0,0,6.973,4.452,4.452,0,0,0,6.485,0,5.219,5.219,0,0,0,0-6.973" transform="translate(-149.35 -23.845)" fill="#fff"/>
      <path id="Path_2327" data-name="Path 2327" d="M289.58,30.525V32.61a6.269,6.269,0,0,1,5.572-2.574v4.529a4.094,4.094,0,0,0-1.662-.358,3.769,3.769,0,0,0-2.8,1.124,3.852,3.852,0,0,0-1.108,2.819v9.319h-4.073V30.525Z" transform="translate(-226.66 -23.845)" fill="#fff"/>
      <path id="Path_2328" data-name="Path 2328" d="M343.172,30.525V32.61a6.269,6.269,0,0,1,5.572-2.574v4.529a4.094,4.094,0,0,0-1.662-.358,3.769,3.769,0,0,0-2.8,1.124,3.852,3.852,0,0,0-1.108,2.819v9.319H339.1V30.525Z" transform="translate(-269.205 -23.845)" fill="#fff"/>
      <path id="Path_2329" data-name="Path 2329" d="M392.578,5.181a2.467,2.467,0,0,1-1.841-.75A2.552,2.552,0,0,1,390,2.574,2.506,2.506,0,0,1,392.578,0a2.552,2.552,0,0,1,1.857.733,2.468,2.468,0,0,1,.749,1.841,2.55,2.55,0,0,1-.733,1.857,2.506,2.506,0,0,1-1.874.75m2.053,18.443h-4.073V6.68h4.073Z" transform="translate(-309.618)" fill="#fff"/>
      <path id="Path_2330" data-name="Path 2330" d="M424.794,45.416A8.77,8.77,0,0,1,422.252,39a8.978,8.978,0,1,1,17.955,0,8.713,8.713,0,0,1-2.574,6.419,9.377,9.377,0,0,1-12.839,0m6.419-11.307a4.549,4.549,0,0,0-3.389,1.4,5.126,5.126,0,0,0,0,6.973,4.8,4.8,0,0,0,6.778,0,5.126,5.126,0,0,0,0-6.973,4.55,4.55,0,0,0-3.389-1.4" transform="translate(-335.219 -23.845)" fill="#fff"/>
      <path id="Path_2331" data-name="Path 2331" d="M561.078,30.036a8.028,8.028,0,0,1,5.149,1.825V30.525h4.041V47.469h-4.041V46.133a8.025,8.025,0,0,1-5.149,1.825,7.817,7.817,0,0,1-5.9-2.542A9.169,9.169,0,0,1,552.834,39a9.053,9.053,0,0,1,2.346-6.387,7.707,7.707,0,0,1,5.9-2.574m3.748,5.474a4.452,4.452,0,0,0-6.485,0,5.316,5.316,0,0,0,0,6.973,4.452,4.452,0,0,0,6.485,0,5.219,5.219,0,0,0,0-6.973" transform="translate(-438.886 -23.845)" fill="#fff"/>
      <path id="Path_2332" data-name="Path 2332" d="M654.289,30.525V32.61a6.269,6.269,0,0,1,5.572-2.574v4.529a4.094,4.094,0,0,0-1.662-.358,3.769,3.769,0,0,0-2.8,1.124,3.851,3.851,0,0,0-1.108,2.819v9.319h-4.073V30.525Z" transform="translate(-516.196 -23.845)" fill="#fff"/>
      <path id="Path_2333" data-name="Path 2333" d="M706.046,30.036a8.028,8.028,0,0,1,5.149,1.825V30.525h4.04V54.8h-4.04V46.133a8.026,8.026,0,0,1-5.149,1.825,7.818,7.818,0,0,1-5.9-2.542A9.171,9.171,0,0,1,697.8,39a9.055,9.055,0,0,1,2.346-6.387,7.707,7.707,0,0,1,5.9-2.574m3.747,5.474a4.452,4.452,0,0,0-6.484,0,5.314,5.314,0,0,0,0,6.973,4.452,4.452,0,0,0,6.484,0,5.218,5.218,0,0,0,0-6.973" transform="translate(-553.974 -23.845)" fill="#fff"/>
      <path id="Path_2334" data-name="Path 2334" d="M795.183,43.226V32.408h4.073v9.645a3.841,3.841,0,0,0,1.091,2.786,3.914,3.914,0,0,0,5.491,0,3.813,3.813,0,0,0,1.108-2.786V32.408h4.073V49.352h-4.073V47.3a5.958,5.958,0,0,1-5.083,2.542,6.489,6.489,0,0,1-4.79-1.89,6.41,6.41,0,0,1-1.89-4.725" transform="translate(-631.283 -25.728)" fill="#fff"/>
      <path id="Path_2335" data-name="Path 2335" d="M884.706,5.181a2.467,2.467,0,0,1-1.841-.75,2.552,2.552,0,0,1-.733-1.857A2.506,2.506,0,0,1,884.706,0a2.552,2.552,0,0,1,1.857.733,2.468,2.468,0,0,1,.749,1.841,2.55,2.55,0,0,1-.733,1.857,2.506,2.506,0,0,1-1.873.75m2.053,18.443h-4.073V6.68h4.073Z" transform="translate(-700.311)" fill="#fff"/>
      <path id="Path_2336" data-name="Path 2336" d="M910.587,23.158V19.607H913V16.283h4.073v3.324h4.2v3.552h-4.2V30.62a1.989,1.989,0,0,0,.586,1.466,2.028,2.028,0,0,0,1.5.587h2.118v3.877h-2.509a5.9,5.9,0,0,1-4.105-1.531A4.972,4.972,0,0,1,913,31.207V23.158Z" transform="translate(-722.901 -12.927)" fill="#fff"/>
      <path id="Path_2337" data-name="Path 2337" d="M985.318,40.5H971.86a4.916,4.916,0,0,0,1.808,2.688,5.056,5.056,0,0,0,3.145,1.026,4.866,4.866,0,0,0,3.976-1.792l3.943,1.14a8.425,8.425,0,0,1-3.275,3.226,9.363,9.363,0,0,1-4.644,1.173,9.074,9.074,0,0,1-6.549-2.542A8.723,8.723,0,0,1,967.657,39a8.741,8.741,0,0,1,8.9-8.961,8.528,8.528,0,0,1,6.322,2.574A8.674,8.674,0,0,1,985.448,39a10.545,10.545,0,0,1-.13,1.5m-13.425-3.161h9.352a4.945,4.945,0,0,0-1.792-2.574,4.815,4.815,0,0,0-2.966-.978,4.581,4.581,0,0,0-2.867.978,4.833,4.833,0,0,0-1.727,2.574" transform="translate(-768.208 -23.846)" fill="#fff"/>
      <path id="Path_2338" data-name="Path 2338" d="M1076.525,35.641l-4.073,1.206a4.4,4.4,0,0,0-1.711-2,4.737,4.737,0,0,0-2.59-.733,4.549,4.549,0,0,0-3.389,1.4,5.125,5.125,0,0,0,0,6.973,4.547,4.547,0,0,0,3.389,1.4,4.737,4.737,0,0,0,2.59-.733,4.4,4.4,0,0,0,1.711-2l4.073,1.206a8.407,8.407,0,0,1-3.226,4.089,9,9,0,0,1-5.148,1.515A8.692,8.692,0,0,1,1059.19,39a8.742,8.742,0,0,1,8.961-8.961,9,9,0,0,1,5.148,1.515,8.41,8.41,0,0,1,3.226,4.089" transform="translate(-840.874 -23.845)" fill="#fff"/>
      <path id="Path_2339" data-name="Path 2339" d="M1144.715,23.158V19.607h2.411V16.283h4.073v3.324h4.2v3.552h-4.2V30.62a1.99,1.99,0,0,0,.586,1.466,2.029,2.029,0,0,0,1.5.587h2.118v3.877h-2.509a5.9,5.9,0,0,1-4.105-1.531,4.972,4.972,0,0,1-1.662-3.812V23.158Z" transform="translate(-908.771 -12.927)" fill="#fff"/>
      <path id="Path_2340" data-name="Path 2340" d="M1204.328,45.416A8.771,8.771,0,0,1,1201.787,39a8.977,8.977,0,1,1,17.954,0,8.712,8.712,0,0,1-2.574,6.419,9.377,9.377,0,0,1-12.839,0m6.419-11.307a4.549,4.549,0,0,0-3.389,1.4,5.126,5.126,0,0,0,0,6.973,4.8,4.8,0,0,0,6.778,0,5.127,5.127,0,0,0,0-6.973,4.55,4.55,0,0,0-3.389-1.4" transform="translate(-954.08 -23.845)" fill="#fff"/>
      <path id="Path_2341" data-name="Path 2341" d="M1307.443,34.6l-3.812.619q-.555-1.662-2.966-1.662a3.352,3.352,0,0,0-1.711.391,1.2,1.2,0,0,0-.668,1.076q0,.847,1.5,1.369l3.487,1.173a7.918,7.918,0,0,1,3.373,2.02,4.474,4.474,0,0,1,1.059,3.063,4.614,4.614,0,0,1-1.841,3.943,7.971,7.971,0,0,1-4.871,1.369,8.112,8.112,0,0,1-4.855-1.32,5.32,5.32,0,0,1-2.183-3.666l3.812-.554a2.4,2.4,0,0,0,1.092,1.466,4.066,4.066,0,0,0,2.232.554,3.928,3.928,0,0,0,1.972-.44,1.354,1.354,0,0,0,.766-1.222q0-1.009-1.89-1.629l-3.487-1.108a6.828,6.828,0,0,1-3.1-1.825,4.313,4.313,0,0,1-.945-2.9,4.633,4.633,0,0,1,1.776-3.926,7.69,7.69,0,0,1,4.773-1.353,7.559,7.559,0,0,1,4.448,1.206,4.814,4.814,0,0,1,2.036,3.357" transform="translate(-1027.249 -23.845)" fill="#fff"/>
    </g>
  </g>
</svg>
